<svg xmlns="http://www.w3.org/2000/svg" width="1200" height="560" viewBox="0 0 1200 560" role="img">
<defs>
  <linearGradient id="gIndigo" x1="0" y1="0" x2="1" y2="1">
    <stop offset="0%" stop-color="#6366f1"/><stop offset="100%" stop-color="#8b5cf6"/>
  </linearGradient>
  <linearGradient id="gCyan" x1="0" y1="0" x2="1" y2="1">
    <stop offset="0%" stop-color="#06b6d4"/><stop offset="100%" stop-color="#0891b2"/>
  </linearGradient>
  <linearGradient id="gArea" x1="0" y1="0" x2="0" y2="1">
    <stop offset="0%" stop-color="#6366f1" stop-opacity="0.28"/>
    <stop offset="100%" stop-color="#6366f1" stop-opacity="0.02"/>
  </linearGradient>
  <filter id="sh" x="-20%" y="-20%" width="140%" height="150%">
    <feDropShadow dx="0" dy="2" stdDeviation="6" flood-color="#0f172a" flood-opacity="0.07"/>
  </filter>
  <style>
    .t{font-family:-apple-system,BlinkMacSystemFont,"Segoe UI","Microsoft YaHei","PingFang SC","Hiragino Sans GB",sans-serif}
    .m{font-family:ui-monospace,SFMono-Regular,Consolas,"Courier New",monospace}
    .h1{font-size:26px;font-weight:700;fill:#0f172a}
    .h2{font-size:17px;font-weight:700;fill:#0f172a}
    .b{font-size:13px;fill:#64748b}
    .s{font-size:11.5px;fill:#64748b}
    .k{font-size:12px;font-weight:600}
  </style>
</defs>
<rect width="1200" height="560" fill="#f8fafc"/>

  <text x="40" y="52" class="t h1">最近 30 天调用趋势</text>
  <text x="40" y="80" class="t b">2026-08-14 ~ 09-12 ｜ 累计 12.5 万次调用 ｜ 单日峰值 2,660 次</text>
  <rect x="40" y="94" width="60" height="4" rx="2" fill="url(#gCyan)"/><line x1="78" y1="468" x2="1154" y2="468" stroke="#e2e8f0" stroke-width="1" /><text x="64" y="472" class="t s" text-anchor="end">0</text><line x1="78" y1="389" x2="1154" y2="389" stroke="#e2e8f0" stroke-width="1" stroke-dasharray="4 5"/><text x="64" y="393" class="t s" text-anchor="end">0.7k</text><line x1="78" y1="310" x2="1154" y2="310" stroke="#e2e8f0" stroke-width="1" stroke-dasharray="4 5"/><text x="64" y="314" class="t s" text-anchor="end">1.4k</text><line x1="78" y1="231" x2="1154" y2="231" stroke="#e2e8f0" stroke-width="1" stroke-dasharray="4 5"/><text x="64" y="235" class="t s" text-anchor="end">2.1k</text><line x1="78" y1="152" x2="1154" y2="152" stroke="#e2e8f0" stroke-width="1" stroke-dasharray="4 5"/><text x="64" y="156" class="t s" text-anchor="end">2.8k</text><polygon points="78,468 78.0,425.5 115.1,355.7 152.2,394.9 189.3,407.2 226.4,458.1 263.5,370.7 300.6,457.4 337.7,370.2 374.8,421.6 411.9,323.2 449.0,450.1 486.1,451.7 523.2,167.8 560.3,365.0 597.4,424.2 634.6,359.4 671.7,389.7 708.8,447.0 745.9,414.6 783.0,454.5 820.1,453.3 857.2,443.2 894.3,456.9 931.4,456.8 968.5,448.9 1005.6,457.7 1042.7,455.9 1079.8,457.3 1116.9,461.1 1154.0,456.9 1154,468" fill="url(#gArea)"/><polyline points="78.0,425.5 115.1,355.7 152.2,394.9 189.3,407.2 226.4,458.1 263.5,370.7 300.6,457.4 337.7,370.2 374.8,421.6 411.9,323.2 449.0,450.1 486.1,451.7 523.2,167.8 560.3,365.0 597.4,424.2 634.6,359.4 671.7,389.7 708.8,447.0 745.9,414.6 783.0,454.5 820.1,453.3 857.2,443.2 894.3,456.9 931.4,456.8 968.5,448.9 1005.6,457.7 1042.7,455.9 1079.8,457.3 1116.9,461.1 1154.0,456.9" fill="none" stroke="#6366f1" stroke-width="2.6" stroke-linejoin="round" stroke-linecap="round"/><circle cx="78.0" cy="425.5" r="3" fill="#ffffff" stroke="#6366f1" stroke-width="2"/><circle cx="115.1" cy="355.7" r="3" fill="#ffffff" stroke="#6366f1" stroke-width="2"/><circle cx="152.2" cy="394.9" r="3" fill="#ffffff" stroke="#6366f1" stroke-width="2"/><circle cx="189.3" cy="407.2" r="3" fill="#ffffff" stroke="#6366f1" stroke-width="2"/><circle cx="226.4" cy="458.1" r="3" fill="#ffffff" stroke="#6366f1" stroke-width="2"/><circle cx="263.5" cy="370.7" r="3" fill="#ffffff" stroke="#6366f1" stroke-width="2"/><circle cx="300.6" cy="457.4" r="3" fill="#ffffff" stroke="#6366f1" stroke-width="2"/><circle cx="337.7" cy="370.2" r="3" fill="#ffffff" stroke="#6366f1" stroke-width="2"/><circle cx="374.8" cy="421.6" r="3" fill="#ffffff" stroke="#6366f1" stroke-width="2"/><circle cx="411.9" cy="323.2" r="3" fill="#ffffff" stroke="#6366f1" stroke-width="2"/><circle cx="449.0" cy="450.1" r="3" fill="#ffffff" stroke="#6366f1" stroke-width="2"/><circle cx="486.1" cy="451.7" r="3" fill="#ffffff" stroke="#6366f1" stroke-width="2"/><circle cx="523.2" cy="167.8" r="3" fill="#ffffff" stroke="#6366f1" stroke-width="2"/><circle cx="560.3" cy="365.0" r="3" fill="#ffffff" stroke="#6366f1" stroke-width="2"/><circle cx="597.4" cy="424.2" r="3" fill="#ffffff" stroke="#6366f1" stroke-width="2"/><circle cx="634.6" cy="359.4" r="3" fill="#ffffff" stroke="#6366f1" stroke-width="2"/><circle cx="671.7" cy="389.7" r="3" fill="#ffffff" stroke="#6366f1" stroke-width="2"/><circle cx="708.8" cy="447.0" r="3" fill="#ffffff" stroke="#6366f1" stroke-width="2"/><circle cx="745.9" cy="414.6" r="3" fill="#ffffff" stroke="#6366f1" stroke-width="2"/><circle cx="783.0" cy="454.5" r="3" fill="#ffffff" stroke="#6366f1" stroke-width="2"/><circle cx="820.1" cy="453.3" r="3" fill="#ffffff" stroke="#6366f1" stroke-width="2"/><circle cx="857.2" cy="443.2" r="3" fill="#ffffff" stroke="#6366f1" stroke-width="2"/><circle cx="894.3" cy="456.9" r="3" fill="#ffffff" stroke="#6366f1" stroke-width="2"/><circle cx="931.4" cy="456.8" r="3" fill="#ffffff" stroke="#6366f1" stroke-width="2"/><circle cx="968.5" cy="448.9" r="3" fill="#ffffff" stroke="#6366f1" stroke-width="2"/><circle cx="1005.6" cy="457.7" r="3" fill="#ffffff" stroke="#6366f1" stroke-width="2"/><circle cx="1042.7" cy="455.9" r="3" fill="#ffffff" stroke="#6366f1" stroke-width="2"/><circle cx="1079.8" cy="457.3" r="3" fill="#ffffff" stroke="#6366f1" stroke-width="2"/><circle cx="1116.9" cy="461.1" r="3" fill="#ffffff" stroke="#6366f1" stroke-width="2"/><circle cx="1154.0" cy="456.9" r="3" fill="#ffffff" stroke="#6366f1" stroke-width="2"/><line x1="523.2413793103449" y1="157.8" x2="523.2413793103449" y2="160" stroke="#e11d48" stroke-width="1.2" stroke-dasharray="3 3"/><rect x="477.2413793103449" y="125.80000000000001" width="118" height="26" rx="13" fill="#fff1f2" stroke="#e11d48"/><text x="536.2413793103449" y="143.8" class="t k" fill="#e11d48" text-anchor="middle">峰值 2,660</text><line x1="78" y1="415.18285714285713" x2="1154" y2="415.18285714285713" stroke="#059669" stroke-width="1.6" stroke-dasharray="7 5"/><rect x="1004" y="385.18285714285713" width="150" height="24" rx="12" fill="#ecfdf5" stroke="#059669"/><text x="1079" y="402.18285714285713" class="t k" fill="#059669" text-anchor="middle">日均 468 次</text><text x="78.0" y="494" class="t s" text-anchor="middle">08-14</text><text x="263.5" y="494" class="t s" text-anchor="middle">08-19</text><text x="449.0" y="494" class="t s" text-anchor="middle">08-24</text><text x="634.6" y="494" class="t s" text-anchor="middle">08-29</text><text x="820.1" y="494" class="t s" text-anchor="middle">09-03</text><text x="1005.6" y="494" class="t s" text-anchor="middle">09-08</text><text x="1154.0" y="494" class="t s" text-anchor="middle">09-12</text><text x="40" y="536" class="t s">数据取自站点首页注入的 window.STATS（按天聚合的 total 字段），非估算值。</text>
</svg>
